<?xml version="1.0" encoding="utf-8"?>
<!-- Generator: Adobe Illustrator 16.0.0, SVG Export Plug-In . SVG Version: 6.00 Build 0)  -->
<!DOCTYPE svg PUBLIC "-//W3C//DTD SVG 1.1//EN" "http://www.w3.org/Graphics/SVG/1.1/DTD/svg11.dtd">

<svg data-name="Layer_1" xmlns="http://www.w3.org/2000/svg" viewBox="0 0 428 91.84"><path d="M49.36 49.35v35.57h.57a39.15 39.15 0 0023.71-11.28l1.78-2-12.88-22.29zm-20 0L16.42 71.67l1.78 2a39.15 39.15 0 0023.71 11.25h.58V49.35zm16.56-28.78L33.27 42.49h25.3L45.92 20.57zM46 6.72l2.51 4.55 31.31 54.27.57-.94A39.22 39.22 0 0049.93 6.92zm-.08 0l-4 .2A39.22 39.22 0 0011.45 64.6l.58.94 31.33-54.27 2.53-4.55zm0-6.72A45.92 45.92 0 110 45.92 45.92 45.92 0 0145.92 0z" fill-rule="evenodd" fill="#fff"></path><path d="M135.3 33.8h-7.9v14.43h-3.75V33.8h-9.12a30.13 30.13 0 01-.67 4.7 15.62 15.62 0 01-1.43 3.78 18.3 18.3 0 01-2.43 3.43 41.07 41.07 0 01-3.62 3.56l-2.82-2.82a38.63 38.63 0 003.25-3 14.23 14.23 0 002.19-2.86 12.73 12.73 0 001.23-3.06 21.87 21.87 0 00.55-3.73h-8.31v-3.63h8.42v-9.39h-6.53v-3.64h29.05v3.64h-6v9.39h7.9zm-11.65-3.63v-9.39h-9v9.39zm40.89 8.2a36.87 36.87 0 008 7.16l-2.25 3.39a46.55 46.55 0 01-4.36-3.54 36.59 36.59 0 01-3.62-3.88 33.58 33.58 0 01-3.61 3.78c-1.35 1.22-2.88 2.45-4.59 3.71l-2.18-2.59a3.69 3.69 0 01-1.34.61 14.06 14.06 0 01-1.89.31l-2 .23-1.08-3.82 1.89-.23a3.1 3.1 0 001.78-.61 2.31 2.31 0 00.56-1.54c0-.2.05-.54.07-1s.06-1 .1-1.67.07-1.3.11-2 .07-1.38.11-2 .07-1.18.09-1.67 0-.82 0-1h-4.16c-.1 2-.26 3.79-.48 5.27a26.18 26.18 0 01-.91 4.08 21.09 21.09 0 01-1.48 3.56c-.61 1.15-1.33 2.41-2.17 3.77l-3.19-2.19a33 33 0 002.2-3.77 19.92 19.92 0 001.43-3.81 29.78 29.78 0 00.82-4.81c.17-1.8.28-4 .33-6.6 0-.45.05-1 .08-1.62s0-1.26.07-1.91h-3.08v-3.72h6.61c-.2-.77-.42-1.61-.67-2.54s-.47-1.67-.67-2.21l3.41-.48.36 1.07c.13.43.28.87.42 1.34s.29.95.41 1.45.25 1 .37 1.37h5.64v3.66h-9.24v4.38h7.09c.54-.86 1.11-1.85 1.69-2.95s1.12-2.25 1.61-3.45.94-2.41 1.34-3.64a32 32 0 00.92-3.5l3.71.59a62.943 62.943 0 01-1.55 5.16h10.46v3.78h-2.89a49.13 49.13 0 01-1.51 7.72 25.77 25.77 0 01-2.76 6.36zM153 44.86a35.26 35.26 0 007.09-6.49 35 35 0 01-2.09-4.09 25.91 25.91 0 01-1.4-4.36l-1 1.49-1.74-2c0 .55-.06 1.22-.1 2s-.06 1.64-.09 2.54 0 1.81-.09 2.73-.07 1.77-.09 2.57 0 1.51-.08 2.1 0 1 0 1.26a10.46 10.46 0 01-.41 2.25zm6.64-20.56l-.55 1.15a27.39 27.39 0 001.16 5 27.08 27.08 0 002 4.49 24.64 24.64 0 001.91-4.88 37.83 37.83 0 001.09-5.81zm38.03 12.21v7.61a8.21 8.21 0 01-.2 2 2.46 2.46 0 01-.73 1.23 3.32 3.32 0 01-1.37.68 13.72 13.72 0 01-2.19.34l-2.45.22-1-3.6 2.05-.22a7.14 7.14 0 001.16-.19 1.33 1.33 0 00.65-.33 1.14 1.14 0 00.3-.6 4.71 4.71 0 00.07-.92v-6.2h-8.27v-13.9h6.75c.18-.47.34-.93.5-1.39s.31-.92.43-1.39h-10.46v9.07q0 3.75-.26 6.59a36.66 36.66 0 01-.84 5.18 25.42 25.42 0 01-1.47 4.34 39 39 0 01-2.15 4.12l-3.3-2.57q1.23-2.1 2-3.84a20.53 20.53 0 001.32-3.65 28.1 28.1 0 00.72-4.3c.15-1.59.22-3.5.22-5.75V16.4h28.87v3.45h-13.13l2.26.45-.33 1.11c-.13.4-.25.8-.37 1.22h9.24v13.88zm-6.49 3c-.42.62-.92 1.29-1.49 2s-1.16 1.44-1.79 2.19-1.28 1.46-2 2.17-1.31 1.36-1.93 2l-2.41-2.86a49.74 49.74 0 003.65-3.74 47.33 47.33 0 003.06-3.82zm-2-13.84v2.34h13.13v-2.3zm0 7.8h13.13V31.2h-13.17zm12.43 4.19c.54.42 1.13.9 1.76 1.44s1.27 1.12 1.91 1.71 1.27 1.2 1.87 1.82 1.17 1.21 1.69 1.78l-2.26 2.89c-.5-.54-1.06-1.15-1.71-1.83s-1.3-1.36-2-2-1.34-1.33-2-1.93-1.21-1.12-1.71-1.54zm42.96-3.97h-14.1v9.54a10.53 10.53 0 01-.2 2.24 2.71 2.71 0 01-.77 1.39 3.44 3.44 0 01-1.54.78 16.64 16.64 0 01-2.54.41l-3.23.3-1.26-3.83 3.27-.22a5.87 5.87 0 001.3-.17 1.57 1.57 0 00.74-.38 1.31 1.31 0 00.33-.71 7.11 7.11 0 00.08-1.15v-8.2h-14.21v-3.64h14.21v-3.13l9.53-6.34h-20.66v-3.66h27.08v3.71l-12.13 8v1.44h14.1zm36.77.11h-7.91v14.43h-3.74V33.8h-9.13a30.13 30.13 0 01-.67 4.7 15.62 15.62 0 01-1.43 3.78 18.3 18.3 0 01-2.41 3.43 39.73 39.73 0 01-3.62 3.56l-2.82-2.82a38.63 38.63 0 003.25-3 14.23 14.23 0 002.14-2.86 12.33 12.33 0 001.23-3.06 20.91 20.91 0 00.55-3.73h-8.31v-3.63h8.43v-9.39h-6.53v-3.64h29.05v3.64h-6v9.39h7.91zm-11.65-3.63v-9.39h-9v9.39zm21.48 1.59c-.42-.44-.9-.91-1.43-1.41l-1.63-1.43q-.84-.75-1.65-1.41c-.55-.45-1-.82-1.45-1.12l1.82-2.7c.44.29.95.65 1.52 1.05s1.14.85 1.72 1.32 1.14.93 1.67 1.39 1 .89 1.43 1.28zm1.22 2.78a82.962 82.962 0 01-.91 3.94l-.74 3c-.26 1.07-.51 2.06-.74 3s-.45 1.73-.63 2.41-.31 1.12-.35 1.32l-3.42-.93c.1-.27.24-.75.43-1.43s.4-1.47.65-2.37.49-1.86.74-2.88.48-2 .7-2.89.42-1.73.58-2.45.27-1.24.32-1.56zm-.07-11.09c-.35-.37-.77-.8-1.26-1.28s-1-1-1.58-1.45l-1.65-1.39c-.55-.44-1-.83-1.45-1.15l2-2.63c.43.27.9.6 1.43 1l1.62 1.24c.54.44 1.07.87 1.57 1.3s.95.82 1.32 1.17zm17.4 13.73v6.9a7.57 7.57 0 01-.21 2 2.61 2.61 0 01-.7 1.25 2.79 2.79 0 01-1.3.68 13.19 13.19 0 01-1.95.32l-1.82.15-1.07-3.42 1.71-.14a5.2 5.2 0 001-.15 1.15 1.15 0 00.55-.34 1.22 1.22 0 00.25-.65 10.52 10.52 0 00.05-1.09v-5.51h-6.08V23.23h5c.17-.55.33-1.08.48-1.6s.28-1.05.41-1.59h-7.87v8.94q0 3.45-.2 6.1a39.81 39.81 0 01-.69 5 30.56 30.56 0 01-1.28 4.39 42 42 0 01-2 4.45l-3.33-1.56a44.35 44.35 0 002-4.34 25.72 25.72 0 001.22-4.1 33.37 33.37 0 00.62-4.45c.11-1.57.16-3.37.16-5.4V16.59h23v3.45h-9.61l1.52.26q-.18.63-.39 1.41c-.14.52-.29 1-.46 1.52h6.93v14zm-5.64 2.86c-.35.64-.74 1.31-1.17 2s-.88 1.4-1.35 2.09-.95 1.37-1.43 2-.95 1.25-1.39 1.8l-2.53-2.01q1.46-1.74 2.82-3.68a26 26 0 002.3-3.82zm-.48-13.84v2.59h8.6V26.2zm0 8h8.6v-2.51h-8.6zm10.27 4.27c.35.42.76.93 1.23 1.52s.94 1.23 1.43 1.89.94 1.33 1.37 2 .8 1.24 1.09 1.76l-2.59 2.15c-.3-.52-.67-1.13-1.12-1.83s-.9-1.42-1.37-2.14-.93-1.39-1.39-2-.86-1.16-1.21-1.58zm25.94 3.45v3.12h12.65v2.88h-29v-2.91h12.76v-3.09h-6.68v-2.4a36.42 36.42 0 01-6.93 4.34L321 40.52a34.55 34.55 0 005.16-2.75 19.87 19.87 0 003.84-3.19h-8V31.8h6.08v-11h-4.89V18h4.89v-2.71l3.57.15V18h12.68v-2.71l3.53.15V18h4.9v2.82h-4.9v11H354v2.78h-8.09a16.52 16.52 0 003.94 3.21 42.37 42.37 0 005 2.47l-1.52 3.3a40.61 40.61 0 01-3.8-2 28.9 28.9 0 01-3.25-2.2v2.54zm-3.64-2.89v-3.11l3.64.15v2.9h6a45.25 45.25 0 01-2.12-2 22 22 0 01-1.89-2.38h-7.72a18.75 18.75 0 01-4 4.42zm-4.52-18.21v1.7h12.68v-1.7zm0 6.34h12.68v-2h-12.68zm0 4.64h12.68v-2.08h-12.68zm44.74 12.28h13.51v3.41h-30.69v-3.41h13.51v-8h-7.24l1.06 1.13c.41.44.82.89 1.24 1.38s.83 1 1.23 1.44.73.94 1 1.36l-2.38 2.67c-.29-.45-.66-.94-1.09-1.48l-1.32-1.66c-.44-.55-.88-1.08-1.31-1.57s-.81-.91-1.14-1.23l2.23-2h-3.82v-3.47h11.54v-3.73h-7.46v-2.43a59.22 59.22 0 01-5.86 3.12l-1.56-3.53a45 45 0 009.05-5 26.77 26.77 0 006.2-6.24h3.12a26.74 26.74 0 006.23 6.14 41.6 41.6 0 008.83 4.77l-1.45 3.6c-1-.42-2.05-.89-3-1.41s-2-1.06-2.93-1.63v2.61h-7.46v3.75h11.54v3.45h-3.75l2.08 1.67c-.35.5-.71 1-1.1 1.56s-.82 1.07-1.2 1.57-.85 1.08-1.28 1.6-.86 1-1.28 1.41l-2.67-2.27c.32-.37.68-.79 1.07-1.26l1.16-1.38c.41-.49.8-1 1.17-1.49s.7-1 1-1.43h-6.79zm-1.78-25.71a24.73 24.73 0 01-3.36 3.69 36.37 36.37 0 01-4.51 3.47h15.88a42 42 0 01-4.52-3.4 21.73 21.73 0 01-3.49-3.76zm38.1-3.9a30.16 30.16 0 006.29 6.59 51.11 51.11 0 009 5.58l-1.63 3.64a57.77 57.77 0 01-5.53-3.27v2.41h-19.48v-2.33a96.068 96.068 0 01-5.6 3.3l-1.63-3.6a49.63 49.63 0 009-5.62 31.12 31.12 0 006.4-6.7zm-16.84 18.92h30.39v3.42h-15.92q-1.48 2-3.08 3.87a22.83 22.83 0 01-2.89 2.88l12.83-.52c-.57-.69-1.12-1.34-1.65-1.93s-1-1.09-1.39-1.48l2.89-2.3c.52.54 1.11 1.18 1.77 1.91s1.33 1.49 2 2.3 1.38 1.62 2.06 2.45 1.3 1.61 1.87 2.35l-2.67 2.86c-.27-.37-.58-.79-.91-1.26s-.71-1-1.13-1.49l-2.67.1c-1.09 0-2.28.08-3.58.15s-2.65.12-4.06.2l-4.14.22c-1.35.08-2.63.16-3.84.26l-3.12.26-.74-3.49a5.53 5.53 0 001.19-.63c.22-.17.43-.34.63-.52.44-.37.92-.79 1.43-1.26s1-1 1.52-1.52 1-1.11 1.52-1.69 1-1.15 1.43-1.72h-9.76zm23.63-7.31a52.86 52.86 0 01-4.78-3.91 24.82 24.82 0 01-3.6-4.06 25.05 25.05 0 01-3.54 4.08 49.25 49.25 0 01-4.77 3.89zM110.73 77.37a13.83 13.83 0 01-3.58-.43 5.7 5.7 0 01-2.61-1.52 7 7 0 01-1.6-3 16.77 16.77 0 01-.56-4.71 16.66 16.66 0 01.56-4.69 7 7 0 011.6-2.95 5.63 5.63 0 012.61-1.53 13 13 0 013.58-.45 12.8 12.8 0 013.57.45 5.74 5.74 0 012.61 1.53 6.89 6.89 0 011.6 2.95 17.12 17.12 0 01.54 4.69 17.23 17.23 0 01-.54 4.71 6.89 6.89 0 01-1.6 3 5.81 5.81 0 01-2.61 1.5 13.64 13.64 0 01-3.57.45zm0-3a6.15 6.15 0 002.33-.37 3 3 0 001.41-1.08 4.85 4.85 0 00.7-2 25 25 0 000-6.15 5.15 5.15 0 00-.7-2.09 3 3 0 00-1.41-1.18 6.13 6.13 0 00-2.33-.38 6.22 6.22 0 00-2.34.38 3 3 0 00-1.39 1.11 5.47 5.47 0 00-.7 2.09 25 25 0 000 6.15 5.14 5.14 0 00.7 2 3 3 0 001.43 1.14 6.24 6.24 0 002.3.42zM123 58.41h6a14.51 14.51 0 013.44.35 5.15 5.15 0 012.22 1.1 4.18 4.18 0 011.18 1.94 9.86 9.86 0 01.35 2.83 9.53 9.53 0 01-.4 3 4.45 4.45 0 01-1.28 2 5.18 5.18 0 01-2.24 1.1 13.4 13.4 0 01-3.27.34h-2.45v6.06H123zm5.55 9.78a10 10 0 001.9-.16 2.8 2.8 0 001.24-.57 2.22 2.22 0 00.67-1.08 5.79 5.79 0 00.2-1.69 3.33 3.33 0 00-.89-2.67 4.9 4.9 0 00-3.12-.76h-2v6.93zM151.26 74v3.1h-11.55V58.41h11.06v3.07h-7.54v4.53h7v2.91h-7v5.06zm3.53-15.59h5.41l6.8 14.08h.16V58.41h3.44V77.1h-4.8l-7.38-15h-.16v15h-3.47zm31.4 13.74h-7.81l-1.78 5H173l7-18.69h4.74l7 18.69H188zm-1.05-3l-2.67-7.62h-.32l-2.72 7.62zm18.66-7.64h-5.09V77.1h-3.53V61.51h-5.06v-3.1h13.68zm9.96 15.86a13.83 13.83 0 01-3.58-.43 5.7 5.7 0 01-2.61-1.52 7 7 0 01-1.6-3 16.77 16.77 0 01-.56-4.71 16.66 16.66 0 01.56-4.69 7 7 0 011.6-2.95 5.63 5.63 0 012.61-1.53 13 13 0 013.58-.45 12.8 12.8 0 013.57.45 5.74 5.74 0 012.61 1.53 6.89 6.89 0 011.6 2.95 17.12 17.12 0 01.54 4.69 17.23 17.23 0 01-.54 4.71 6.89 6.89 0 01-1.6 3 5.81 5.81 0 01-2.61 1.5 13.64 13.64 0 01-3.57.45zm0-3a6.15 6.15 0 002.33-.37 3 3 0 001.41-1.08 5 5 0 00.71-2 26.36 26.36 0 000-6.15 5.3 5.3 0 00-.71-2.09 3 3 0 00-1.41-1.18 6.13 6.13 0 00-2.33-.38 6.22 6.22 0 00-2.34.38 3 3 0 00-1.42 1.11 5.47 5.47 0 00-.7 2.09 25 25 0 000 6.15 5.14 5.14 0 00.7 2 3 3 0 001.43 1.14 6.24 6.24 0 002.33.42zM226 58.41h5.71l3.67 11h.16l3.77-11h5.54V77.1h-3.47V61.86h-.16l-4 11.47h-3.61l-4-11.47h-.16V77.1H226zm33.73 3.07v4.93h7v3.07h-7v7.62h-3.53V58.41h11.07v3.07zm18.71 15.89a13.83 13.83 0 01-3.58-.43 5.7 5.7 0 01-2.61-1.52 7.11 7.11 0 01-1.6-3 16.81 16.81 0 01-.55-4.71 16.7 16.7 0 01.55-4.69 7.11 7.11 0 011.6-2.95 5.63 5.63 0 012.61-1.53 13 13 0 013.58-.45 12.8 12.8 0 013.57.45 5.72 5.72 0 012.62 1.53 7 7 0 011.6 2.95 17.12 17.12 0 01.54 4.69 17.23 17.23 0 01-.54 4.71 7 7 0 01-1.6 3 5.79 5.79 0 01-2.63 1.5 13.64 13.64 0 01-3.56.45zm0-3a6.11 6.11 0 002.33-.37 2.93 2.93 0 001.42-1.08 5.14 5.14 0 00.7-2 25 25 0 000-6.15 5.47 5.47 0 00-.7-2.09 3 3 0 00-1.42-1.18 6.09 6.09 0 00-2.33-.38 6.22 6.22 0 00-2.34.38 3 3 0 00-1.43 1.18 5.47 5.47 0 00-.7 2.09 26.36 26.36 0 000 6.15 5.14 5.14 0 00.7 2 3 3 0 001.43 1.14 6.24 6.24 0 002.34.35zm19.72 3a14.77 14.77 0 01-3.23-.32 6 6 0 01-2.36-1.08 4.75 4.75 0 01-1.46-2 8.15 8.15 0 01-.49-3V58.41h3.52v12.06a7.4 7.4 0 00.19 1.76 2.53 2.53 0 00.66 1.18 3 3 0 001.24.69 7 7 0 001.95.23 7.51 7.51 0 002-.23 2.69 2.69 0 001.25-.72 2.57 2.57 0 00.64-1.21 7.69 7.69 0 00.17-1.7V58.41h3.5v12.51q0 3.42-1.95 4.91a9.11 9.11 0 01-5.63 1.54zm11.93-18.96h5.41l6.78 14.08h.17V58.41h3.44V77.1h-4.79l-7.38-15h-.16v15h-3.47zm26.28 0a17.62 17.62 0 013.71.36 6.44 6.44 0 012.86 1.39 6.66 6.66 0 011.84 2.86 14.22 14.22 0 01.66 4.74 13.22 13.22 0 01-.66 4.51 7 7 0 01-1.84 2.86 6.76 6.76 0 01-2.86 1.53 14.69 14.69 0 01-3.71.44h-6.06V58.41zm-.16 15.65a8.73 8.73 0 002.39-.3 4 4 0 001.77-1 4.57 4.57 0 001.07-1.92 10.64 10.64 0 00.37-3.07 11.14 11.14 0 00-.38-3.18 4.48 4.48 0 00-1.1-1.95 3.76 3.76 0 00-1.77-1 9.82 9.82 0 00-2.35-.26h-2.37v12.68zM360 72.15h-7.8l-1.78 5h-3.63l7-18.69h4.74l7 18.69h-3.75zm-1.05-3l-2.67-7.62H356l-2.72 7.62zm18.67-7.64h-5.09V77.1H369V61.51h-5.07v-3.1h13.68zm2.67-3.1h3.53V77.1h-3.53zm15.78 18.96a13.77 13.77 0 01-3.58-.43 5.7 5.7 0 01-2.61-1.52 7.12 7.12 0 01-1.61-3 17.19 17.19 0 01-.55-4.71 17.08 17.08 0 01.55-4.69 7.12 7.12 0 011.61-2.95 5.63 5.63 0 012.61-1.53 14.43 14.43 0 017.15 0 5.74 5.74 0 012.61 1.53 6.89 6.89 0 011.6 2.95 17.12 17.12 0 01.54 4.69 17.23 17.23 0 01-.54 4.71 6.89 6.89 0 01-1.6 3 5.81 5.81 0 01-2.61 1.5 13.69 13.69 0 01-3.57.45zm0-3a6.15 6.15 0 002.33-.37 3 3 0 001.41-1.08 5 5 0 00.7-2 25 25 0 000-6.15 5.3 5.3 0 00-.7-2.09 3 3 0 00-1.41-1.18 6.13 6.13 0 00-2.33-.38 6.22 6.22 0 00-2.34.38 3 3 0 00-1.43 1.18 5.47 5.47 0 00-.7 2.09 25 25 0 000 6.15 5.14 5.14 0 00.7 2 3 3 0 001.43 1.14 6.24 6.24 0 002.34.35zm12.25-15.96h5.41l6.79 14.08h.16V58.41h3.45V77.1h-4.79l-7.38-15h-.16v15h-3.48z" fill="#fff"></path></svg>
